<svg id="Layer_1" data-name="Layer 1" xmlns="http://www.w3.org/2000/svg" viewBox="0 0 726.37 493.12">
  <defs>
    <style>
      .cls-1 {
        fill: #B6FF00;
      }
    </style>
  </defs>
  <path class="cls-1" d="M140.54,393.78a31.52,31.52,0,0,1-25.29-36.64L169.6,60.26A31.53,31.53,0,0,1,206.24,35l372.51,68.2h0a31.52,31.52,0,0,1,25.29,36.64L549.71,436.68A31.52,31.52,0,0,1,513.06,462l-372.51-68.2Zm436-278.23h0L204,47.35a18.92,18.92,0,0,0-22,15.18L127.64,359.41a18.92,18.92,0,0,0,15.17,22h0l372.51,68.2a18.92,18.92,0,0,0,22-15.18l54.35-296.88A18.92,18.92,0,0,0,576.5,115.55ZM344.71,82.75l-18.07-3.32-5.74-1.05-31.79-5.83L279,70.7,216.93,59.32a25.3,25.3,0,0,0-29.45,20.33l-13.24,72.18,102.93-71-7.05,38.45,49.71-35-3.38,18.42ZM489.08,317.43a21.61,21.61,0,1,0,25.16-17.36A21.62,21.62,0,0,0,489.08,317.43ZM171.7,259.25a21.61,21.61,0,1,0,25.16-17.37A21.62,21.62,0,0,0,171.7,259.25Zm226.85,16.19-84.83-15.55a48.55,48.55,0,1,1,17.51-95.51l84.83,15.56a48.55,48.55,0,0,1-17.51,95.5Zm-70-96.31a33.55,33.55,0,0,0-12.1,66l84.83,15.56a33.56,33.56,0,0,0,12.1-66Zm-5.54,20a11.84,11.84,0,1,0,9.51,13.78A11.84,11.84,0,0,0,323,199.1Zm85.89,15.75a11.84,11.84,0,1,0,9.51,13.78A11.84,11.84,0,0,0,408.87,214.85Zm269-42.76c.13-4.38,2.56-108.12-67-169.71a9.45,9.45,0,1,0-12.53,14.14c62.82,55.64,60.66,154,60.63,155a9.46,9.46,0,0,0,9.16,9.72h.29A9.45,9.45,0,0,0,677.83,172.09Zm48.45-13.2c.11-2.35,2.28-57.93-22-96.34a9.45,9.45,0,1,0-16,10.11c21.12,33.33,19.16,84.88,19.14,85.4a9.44,9.44,0,0,0,9,9.84h.42A9.43,9.43,0,0,0,726.28,158.89ZM128.88,489.94a9.46,9.46,0,0,0-.82-13.34c-62.82-55.63-60.66-154-60.63-155A9.44,9.44,0,0,0,48.55,321c-.14,4.38-2.56,108.11,67,169.71a9.46,9.46,0,0,0,13.34-.81ZM35.18,433.5a9.44,9.44,0,0,0,2.93-13C17,387.13,18.94,335.59,19,335.07a9.45,9.45,0,0,0-18.88-.83c-.1,2.35-2.27,57.92,22.05,96.34a9.45,9.45,0,0,0,13,2.92Z"/>
</svg>
